<svg width="21" height="21" viewBox="0 0 21 21" fill="none" xmlns="http://www.w3.org/2000/svg">
<path d="M0.563962 9.13399C0.564602 9.13351 0.565083 9.13287 0.565564 9.13239L9.13277 0.566369C9.49794 0.201074 9.98345 9.63098e-07 10.4999 9.1795e-07C11.0163 8.72802e-07 11.5018 0.201074 11.8672 0.566369L20.4299 9.12806C20.4328 9.13094 20.4358 9.13399 20.4385 9.13687C21.1884 9.89101 21.1871 11.1146 20.4348 11.8668C20.0911 12.2106 19.6374 12.4096 19.152 12.4306C19.1321 12.4325 19.1123 12.4335 19.0922 12.4335L18.7509 12.4335L18.7509 18.7374C18.7509 19.985 17.7357 21 16.488 21L13.1362 21C12.7963 21 12.5209 20.7244 12.5209 20.3848L12.5209 15.4424C12.5209 14.8731 12.0577 14.4101 11.4884 14.4101L9.5114 14.4101C8.94209 14.4101 8.47902 14.8731 8.47902 15.4424L8.47902 20.3848C8.47902 20.7244 8.20357 21 7.86372 21L4.51196 21C3.26406 21 2.24898 19.985 2.24898 18.7374L2.24898 12.4335L1.93236 12.4335C1.41608 12.4335 0.930576 12.2324 0.565083 11.867C-0.188014 11.1136 -0.188335 9.88781 0.563962 9.13399ZM1.43531 10.997C1.56814 11.1298 1.74472 11.203 1.93236 11.203L2.86427 11.203C3.20413 11.203 3.47957 11.4784 3.47957 11.8183L3.47957 18.7374C3.47957 19.3065 3.94265 19.7695 4.51196 19.7695L7.24842 19.7695L7.24842 15.4424C7.24842 14.1948 8.2635 13.1796 9.5114 13.1796L11.4884 13.1796C12.7363 13.1796 13.7515 14.1948 13.7515 15.4424L13.7515 19.7695L16.488 19.7695C17.0571 19.7695 17.5203 19.3065 17.5203 18.7374L17.5203 11.8183C17.5203 11.4784 17.7958 11.203 18.1356 11.203L19.0515 11.203C19.0612 11.2024 19.0706 11.2019 19.0804 11.2018C19.2637 11.1985 19.4356 11.1258 19.5644 10.9968C19.8384 10.7229 19.8384 10.277 19.5644 10.0028C19.5643 10.0028 19.5643 10.0027 19.5641 10.0025L19.5636 10.002L10.9968 1.43635C10.8641 1.30353 10.6877 1.23047 10.4999 1.23047C10.3122 1.23047 10.1358 1.30353 10.003 1.43635L1.43804 10.0003C1.43675 10.0016 1.43531 10.0028 1.43403 10.0041C1.16147 10.2786 1.16195 10.7235 1.43531 10.997Z" fill="#00BEFF"/>
</svg>
